<?xml version="1.0" encoding="UTF-8" standalone="no"?>
<svg
   version="1.1"
   id="svg65"
   sodipodi:docname="backtiles.svg"
   width="137.99998"
   height="138"
   xmlns:inkscape="http://www.inkscape.org/namespaces/inkscape"
   xmlns:sodipodi="http://sodipodi.sourceforge.net/DTD/sodipodi-0.dtd"
   xmlns="http://www.w3.org/2000/svg"
   xmlns:svg="http://www.w3.org/2000/svg">
  <sodipodi:namedview
     id="namedview65"
     pagecolor="#ffffff"
     bordercolor="#000000"
     borderopacity="0.25"
     inkscape:showpageshadow="2"
     inkscape:pageopacity="0.0"
     inkscape:pagecheckerboard="0"
     inkscape:deskcolor="#d1d1d1" />
  <defs
     id="defs1" />
  <g
     id="g65"
     transform="translate(245.76923,-265.17752)">
    <g
       id="g73"
       transform="translate(-430.76923,-69.822485)">
      <path
         stroke="none"
         fill="#80be1f"
         d="m 308,355.45 v -3.9 Q 308,350 306.45,350 h -104.9 q -1.55,0 -1.55,1.55 v 3.9 101.1 q 0.05,1.45 1.55,1.45 h 104.9 q 1.5,0 1.55,-1.45 V 355.45 M 201.55,340 h 104.9 Q 318,340 318,351.55 v 104.9 Q 318,468 306.45,468 H 201.55 Q 190,468 190,456.45 V 351.55 Q 190,340 201.55,340"
         id="path68" />
      <path
         stroke="none"
         fill="#e2e2e2"
         d="M 308,355.45 Q 307.95,354 306.45,354 h -104.9 q -1.5,0 -1.55,1.45 v -3.9 q 0,-1.55 1.55,-1.55 h 104.9 q 1.55,0 1.55,1.55 v 3.9"
         id="path69" />
      <path
         stroke="none"
         fill="#ffffff"
         d="m 308,352.29418 v 101.1 q -0.05,1.45 -1.55,1.45 h -104.9 q -1.5,0 -1.55,-1.45 v -101.1 q 0.05,-1.45 1.55,-1.45 h 104.9 q 1.5,0 1.55,1.45"
         id="path70" />
      <path
         stroke="none"
         fill="#649517"
         d="m 201.55,340 c -7.7,0 -11.55,3.85 -11.55,11.55 v 104.9 c 0,7.7 3.85,11.55 11.55,11.55 h 104.9 c 7.7,0 11.55,-3.85 11.55,-11.55 V 351.55 C 318,343.85 314.15,340 306.45,340 H 257.73833 234.30757 201.55 m 104.9,-5 c 11.03333,0 16.55,5.51667 16.55,16.55 v 104.9 C 323,467.48333 317.48333,473 306.45,473 H 201.55 C 190.51667,473 185,467.48333 185,456.45 V 351.55 C 185,340.51667 190.51667,335 201.55,335 h 104.9"
         id="path71"
         sodipodi:nodetypes="csssssssccccsssssssc" />
      <path
         stroke="none"
         fill="#649517"
         d="m 201.55,340 c -7.7,0 -11.55,3.85 -11.55,11.55 v 104.9 c 0,7.7 3.85,11.55 11.55,11.55 h 104.9 c 7.7,0 11.55,-3.85 11.55,-11.55 V 351.55 C 318,343.85 314.15,340 306.45,340 H 257.73833 234.30757 201.55 m 104.9,-5 c 11.03333,0 16.55,5.51667 16.55,16.55 v 104.9 C 323,467.48333 317.48333,473 306.45,473 H 201.55 C 190.51667,473 185,467.48333 185,456.45 V 351.55 C 185,340.51667 190.51667,335 201.55,335 h 104.9"
         id="path72"
         sodipodi:nodetypes="csssssssccccsssssssc" />
      <path
         stroke="none"
         fill="#649517"
         d="m 201.55,340 c -7.7,0 -11.55,3.85 -11.55,11.55 v 104.9 c 0,7.7 3.85,11.55 11.55,11.55 h 104.9 c 7.7,0 11.55,-3.85 11.55,-11.55 V 351.55 C 318,343.85 314.15,340 306.45,340 H 257.73833 234.30757 201.55 m 104.9,-5 c 11.03333,0 16.55,5.51667 16.55,16.55 v 104.9 C 323,467.48333 317.48333,473 306.45,473 H 201.55 C 190.51667,473 185,467.48333 185,456.45 V 351.55 C 185,340.51667 190.51667,335 201.55,335 h 104.9"
         id="path73"
         sodipodi:nodetypes="csssssssccccsssssssc" />
    </g>
  </g>
</svg>
